<svg width="56" height="56" viewBox="0 0 56 56" fill="none" xmlns="http://www.w3.org/2000/svg">
<circle cx="28" cy="28" r="27.5" fill="white" stroke="#00EBBA"/>
<g clip-path="url(#clip0_0_1)">
<path d="M23.643 40.0002H23.0864C22.4001 39.3706 21.7139 38.7398 21.0478 38.127C22.0134 36.4875 22.0157 35.1935 20.9773 34.1724C20.5504 33.7519 19.9513 33.4321 19.3724 33.2576C18.4693 32.9858 17.64 33.375 16.8017 33.9499C16.4117 33.5227 16.0473 33.1044 15.6628 32.7051C14.7855 31.7948 14.7743 31.4212 15.6595 30.5344C18.9845 27.2028 22.3152 23.8767 25.6403 20.544C26.2885 19.8942 26.9166 19.2232 27.5191 18.598C27.9997 18.8061 28.2355 19.5498 28.7161 19.0733C29.2168 18.5768 28.5149 18.3151 28.221 17.8901C28.9877 17.1475 29.7566 16.4016 30.5267 15.6578C30.6731 15.5169 30.8173 15.3704 30.9771 15.2452C31.3135 14.9812 31.7282 14.8974 32.0501 15.1635C32.6983 15.6992 33.2885 16.3043 33.8808 16.8612C32.9509 18.5667 33.0046 19.7701 34.0015 20.8292C35.0354 21.9263 36.1542 22.0079 38.138 21.0775C38.7449 21.7653 39.373 22.4777 40.0012 23.1901V23.5244C39.914 23.6799 39.857 23.8667 39.7341 23.9863C38.822 24.8754 37.8977 25.7511 36.9399 26.6659C36.6638 26.5877 36.4448 25.854 35.9753 26.3349C35.5327 26.7878 36.1251 27.0574 36.4123 27.5215C36.0726 27.8134 35.6914 28.1086 35.3483 28.443C35.0097 28.7741 34.709 29.1442 34.3983 29.4898C32.9431 28.1836 31.6533 28.225 30.3579 29.5211C29.9913 29.888 29.5946 30.2291 29.2626 30.625C29.019 30.9157 28.7943 31.2535 28.6725 31.608C28.3115 32.6638 28.6747 33.5562 29.4627 34.3592C28.3025 35.5089 27.1681 36.6463 26.018 37.768C25.239 38.5262 24.4365 39.2599 23.6452 40.0047L23.643 40.0002ZM32.1171 22.2115C32.1406 21.763 31.6745 21.234 31.3795 21.2967C31.2029 21.3336 31.0643 21.5494 30.9078 21.6847C31.1548 21.9576 31.3795 22.2573 31.6656 22.4799C31.7237 22.5257 32.0087 22.2797 32.1171 22.2126V22.2115ZM33.9982 23.6833C33.5735 23.3645 33.2985 23.1207 32.9822 22.9552C32.923 22.9239 32.562 23.3108 32.5743 23.3265C32.7956 23.6162 33.0314 23.9069 33.3186 24.1228C33.3768 24.1664 33.6618 23.9069 33.9982 23.6833ZM34.623 24.3375C34.4218 24.6641 34.1681 24.9425 34.2184 25.0186C34.4084 25.3027 34.6833 25.5375 34.965 25.7388C34.9974 25.7623 35.4187 25.3675 35.3941 25.3261C35.2064 25.013 34.9527 24.7401 34.6241 24.3375H34.623ZM30.0439 21.0618C30.2719 20.7531 30.539 20.4803 30.501 20.4266C30.2909 20.1324 30.0126 19.8819 29.7287 19.6538C29.7097 19.6381 29.2906 20.0128 29.3196 20.0665C29.4862 20.3796 29.7309 20.6502 30.0439 21.0607V21.0618Z" fill="#00EBBA"/>
<path d="M32.211 40C31.679 39.4956 31.128 39.0091 30.6206 38.4813C30.2674 38.1144 30.3959 37.742 30.7346 37.4143C31.4789 36.693 32.2188 35.9672 33.0224 35.1832C32.2837 34.4596 31.5963 33.7953 30.919 33.1198C30.2204 32.4231 30.2271 32.3157 30.9369 31.5955C31.1962 31.3315 31.4532 31.0643 31.7058 30.7936C32.1607 30.3038 32.4949 30.2859 32.9665 30.7578C33.6863 31.4792 34.3972 32.2095 35.2209 33.0471C35.9619 32.2654 36.6649 31.5127 37.3813 30.7712C37.8474 30.2892 38.1715 30.287 38.6454 30.7668C39.1081 31.2354 39.5496 31.7252 40.0011 32.2061V32.4287C39.154 33.3558 38.3079 34.2829 37.3936 35.2827C37.587 35.4415 37.7882 35.578 37.9536 35.748C38.6421 36.4548 39.3194 37.1717 40 37.8841V38.1066C39.3697 38.7374 38.7393 39.3681 38.1089 39.9989H37.8865C36.9857 39.1456 36.0848 38.2934 35.1214 37.3808C34.8755 37.657 34.6598 37.9355 34.4061 38.176C33.7567 38.7922 33.0917 39.3916 32.4334 39.9989H32.211V40Z" fill="#00EBBA"/>
</g>
<defs>
<clipPath id="clip0_0_1">
<rect width="25" height="25" fill="white" transform="translate(15 15)"/>
</clipPath>
</defs>
</svg>
